<?xml version="1.0" encoding="utf-8"?>
<!-- Generator: Adobe Illustrator 25.2.0, SVG Export Plug-In . SVG Version: 6.00 Build 0)  -->
<svg version="1.1" id="Layer_1" xmlns="http://www.w3.org/2000/svg" xmlns:xlink="http://www.w3.org/1999/xlink" x="0px" y="0px"
	 viewBox="0 0 48 48" style="enable-background:new 0 0 48 48;" xml:space="preserve">
<style type="text/css">
	.st0{fill:none;}
	.st1{fill:#FFFFFF;stroke:#FFFFFF;stroke-width:0.25;stroke-miterlimit:10;}
	.st2{fill:#FFFFFF;stroke:#FFFFFF;stroke-width:0.2;stroke-miterlimit:10;}
</style>
<rect y="0" class="st0" width="48" height="48"/>
<rect id="_Transparent_Rectangle" x="8.2" y="8.2" class="st0" width="31.6" height="31.6"/>
<path d="M30.7,9.4"/>
<path id="prescription" class="st1" d="M29.2,34.4H11.7c-0.1,0-0.3-0.1-0.3-0.3V12.3c0-0.1,0.1-0.3,0.3-0.3h13.1
	c0.1,0,0.1,0,0.2,0.1l4.4,4.4c0.1,0.1,0.1,0.1,0.1,0.2v17.5C29.5,34.3,29.4,34.4,29.2,34.4z M11.9,33.9h17v-17h-4.1
	c-0.1,0-0.3-0.1-0.3-0.3l0,0v-4.1H11.9L11.9,33.9z M25.1,16.4h3.5l-3.5-3.5V16.4z M23.4,31.5h-8.8V31h8.8V31.5z M26.3,28.6H14.6
	v-0.5h11.7V28.6z M26.3,25.7H14.6v-0.5h11.7V25.7z"/>
<path class="st2" d="M20.4,16.9v-1.3c0-0.1-0.1-0.1-0.1-0.1h-5.5c-0.1,0-0.1,0.1-0.1,0.1v1.3c0,0.1,0.1,0.1,0.1,0.1h3.5l-3.6,4
	c0,0,0,0.1,0,0.1v1.2c0,0.1,0.1,0.1,0.1,0.1h5.5c0.1,0,0.1-0.1,0.1-0.1v-1.3c0-0.1-0.1-0.1-0.1-0.1h-3.5L20.4,16.9
	C20.4,17,20.4,16.9,20.4,16.9z M14.9,16.7v-1h0.9l2.1,1H14.9z M16.5,15.7H19l-0.5,0.9L16.5,15.7z M14.9,22.2v-1l0.4-0.4l0.9,0.4
	l-0.5,1L14.9,22.2z M20.1,21.2v1h-0.9l-2.1-1H20.1z M18.5,22.2H16l0.5-0.9L18.5,22.2z M16.4,20.9l-0.9-0.4l2.4-2.7L16.4,20.9z
	 M17.1,20.1l1.5-3.1l0.9,0.4L17.1,20.1z M20.1,16.8l-0.4,0.4l-1-0.4l0.5-1H20L20.1,16.8z"/>
<rect x="30.4" y="27.1" class="st1" width="3.4" height="0.4"/>
<rect x="30.4" y="29.4" class="st1" width="1" height="0.4"/>
<rect x="30.4" y="24.7" class="st1" width="3.4" height="0.4"/>
<path class="st1" d="M36.2,17.8l-3.5-3.5c0,0-0.1-0.1-0.1-0.1h-4.2l0.4,0.4h3.6V18c0,0.1,0.1,0.2,0.2,0.2h3.3v13.5h-5.5v0.4h5.7
	c0.1,0,0.2-0.1,0.2-0.2V18C36.3,17.9,36.3,17.9,36.2,17.8z M32.8,17.8V15l2.8,2.8L32.8,17.8z"/>
</svg>
