<svg id="Layer_1" data-name="Layer 1" xmlns="http://www.w3.org/2000/svg" viewBox="0 0 48 48"><defs><style>.cls-1{fill:#001140;stroke:#001140;}.cls-1,.cls-3{stroke-miterlimit:10;stroke-width:0.4px;}.cls-2{fill:none;}.cls-3{fill:#fff;stroke:#fff;}</style></defs><circle class="cls-1" cx="24.02" cy="23.48" r="16.8"/><rect class="cls-2" width="48" height="48"/><path id="teammates" class="cls-3" d="M29.44,34.6H29V30.91c0-.16.08-.24.25-.24a3.47,3.47,0,0,0,3.44-3.45V25c0-.16.08-.24.25-.24h1.47a.48.48,0,0,0,.42-.25.53.53,0,0,0,0-.49l-2.14-3.28c0-.09-.08-.09-.08-.17v-.74c0-4.76-2.54-7-7.8-7h-.49v5.33h2.22a2,2,0,0,1,1.56-.74,2.14,2.14,0,0,1,0,4.27,1.91,1.91,0,0,1-1.56-.74H24.27V25c0,.17-.08.25-.24.25H21.48a.29.29,0,0,1-.24-.08A1.57,1.57,0,0,0,20,24.51a1.55,1.55,0,0,0-1.55,1.56A1.61,1.61,0,0,0,20,27.63,1.46,1.46,0,0,0,21.24,27a.29.29,0,0,1,.24-.08H24c.16,0,.24.08.24.25v7.38h-.49V27.46H21.56A2,2,0,0,1,20,28.2a2.13,2.13,0,0,1,0-4.26,1.89,1.89,0,0,1,1.56.73h2.22v-4.1c0-.16.08-.24.25-.24h2.54a.32.32,0,0,1,.25.08,1.53,1.53,0,0,0,1.23.65,1.56,1.56,0,1,0,0-3.11,1.42,1.42,0,0,0-1.23.65.32.32,0,0,1-.25.08H24c-.17,0-.25-.08-.25-.24V12.86h-.49c-5.25,0-7.8,2.3-7.8,7.06v.73c0,.09,0,.09-.08.17l-2.13,3.36c-.09.17-.09.33,0,.41a.44.44,0,0,0,.41.25h1.47a.22.22,0,0,1,.25.25V27.3a3.47,3.47,0,0,0,3.45,3.45.21.21,0,0,1,.24.24v3.7h-.49V31.24a4,4,0,0,1-3.69-3.94v-2H13.69a.89.89,0,0,1-.82-.49,1.37,1.37,0,0,1-.09-1l2.14-3.28v-.65q0-7.64,8.37-7.64h1.47c5.5,0,8.37,2.55,8.37,7.64v.65l2.06,3.28a1.08,1.08,0,0,1,0,1,.92.92,0,0,1-.83.49H33.05v2a4,4,0,0,1-3.69,3.94V34.6Z" transform="translate(0 0)"/><rect id="_Transparent_Rectangle" data-name=" Transparent Rectangle" class="cls-2" x="8.2" y="8.2" width="31.6" height="31.6"/><path d="M30.7,9.4" transform="translate(0 0)"/></svg>