<svg id="Layer_1" data-name="Layer 1" xmlns="http://www.w3.org/2000/svg" viewBox="0 0 48 48"><defs><style>.cls-1{fill:none;}.cls-2{fill:#fff;stroke:#fff;stroke-miterlimit:10;stroke-width:0.25px;}</style></defs><rect class="cls-1" width="48" height="48"/><rect id="_Transparent_Rectangle" data-name=" Transparent Rectangle" class="cls-1" x="8.19" y="8.17" width="31.58" height="31.58"/><path d="M30.72,9.41" transform="translate(0 0)"/><path id="support--services" class="cls-2" d="M21.58,20.62a.27.27,0,0,0-.26.27v4.43a.27.27,0,0,0,.26.27H26a.27.27,0,0,0,.26-.27V20.89a.27.27,0,0,0-.26-.27Zm4.17,4.43h-3.9v-3.9h3.9Zm5.07-9.81H20.1v-.53H30.82a4.33,4.33,0,0,1,0,8.66H27.49v-.53h3.33a3.8,3.8,0,0,0,0-7.6ZM13,17.93h-.53v-.37a3.23,3.23,0,0,1,1.9-2.93,1.72,1.72,0,0,1-.42-1.13,1.74,1.74,0,1,1,3.48,0A1.72,1.72,0,0,1,17,14.63a3.23,3.23,0,0,1,1.9,2.93v.37h-.53v-.37A2.68,2.68,0,0,0,16.41,15a.27.27,0,0,1-.19-.22.26.26,0,0,1,.11-.26,1.21,1.21,0,1,0-1.32,0,.26.26,0,0,1,.11.26.27.27,0,0,1-.19.22A2.68,2.68,0,0,0,13,17.56ZM35.15,33.82v.37h-.53v-.37a2.7,2.7,0,0,0-1.95-2.58.24.24,0,0,1-.19-.21.26.26,0,0,1,.11-.26,1.21,1.21,0,1,0-1.87-1,1.22,1.22,0,0,0,.54,1,.25.25,0,0,1,.12.26.24.24,0,0,1-.19.21,2.7,2.7,0,0,0-2,2.58v.37h-.53v-.37a3.23,3.23,0,0,1,1.9-2.93,1.72,1.72,0,0,1-.42-1.14,1.74,1.74,0,0,1,3.48,0,1.72,1.72,0,0,1-.42,1.14A3.23,3.23,0,0,1,35.15,33.82Zm-9.68-5,2.4,2.4-2.4,2.41-.38-.38,1.76-1.76H16.78a4.33,4.33,0,0,1,0-8.66H20.1v.53H16.78a3.8,3.8,0,0,0,0,7.6H26.85L25.09,29.2Z" transform="translate(0 0)"/></svg>