<svg id="Layer_1" data-name="Layer 1" xmlns="http://www.w3.org/2000/svg" viewBox="0 0 48 48"><defs><style>.cls-1{fill:none;}.cls-2,.cls-3{fill:#fff;stroke:#fff;stroke-miterlimit:10;}.cls-2{stroke-width:0.25px;}.cls-3{stroke-width:0.05px;}</style></defs><rect class="cls-1" width="48" height="48"/><rect id="_Transparent_Rectangle" data-name=" Transparent Rectangle" class="cls-1" x="8.19" y="8.17" width="31.58" height="31.58"/><path d="M30.72,9.41" transform="translate(0 0)"/><path id="building" class="cls-2" d="M34.07,13.29v.5H13.22v-.5ZM32.93,34.13h1.14v.5H13.22v-.5h1.14V14.93h.5v19.2h6.45V28.82a.25.25,0,0,1,.25-.25h4.17a.25.25,0,0,1,.25.25v5.31h6.45V14.93h.5Zm-11.12,0h3.67V29.07H21.81ZM16.94,16.32h-.5v1.39h.5Zm-.5,5.56h.5V20.49h-.5Zm0,4.17h.5V24.66h-.5Zm4-9.73h-.5v1.39h.5Zm-.5,5.56h.5V20.49h-.5Zm0,4.17h.5V24.66h-.5Zm3.47,0h.5V24.66h-.5Zm4-9.73h-.5v1.39h.5V16.32Zm-.5,5.56h.5V20.49h-.5Zm0,4.17h.5V24.66h-.5Zm4-9.73h-.5v1.39h.5V16.32Zm-.5,5.56h.5V20.49h-.5Zm0,4.17h.5V24.66h-.5Z" transform="translate(0 0)"/><path class="cls-3" d="M25.31,20v-.73a.09.09,0,0,0-.09-.08H22.06a.09.09,0,0,0-.09.08V20a.09.09,0,0,0,.09.09h2L22,22.34a.07.07,0,0,0,0,.06v.73a.09.09,0,0,0,.09.09h3.16a.09.09,0,0,0,.09-.09V22.4a.09.09,0,0,0-.09-.09h-2L25.29,20A.08.08,0,0,0,25.31,20Zm-3.16-.08v-.56h.5l1.2.56Zm.92-.56h1.4l-.26.53ZM22.15,23v-.61l.22-.24.55.25-.31.6Zm3-.55V23h-.5l-1.21-.55Zm-.92.55H22.81l.26-.53ZM23,22.28l-.5-.23,1.39-1.55Zm.41-.42.89-1.78.5.23Zm1.74-1.93-.22.24-.55-.25.3-.6h.47Z" transform="translate(0 0)"/><polygon class="cls-2" points="23.89 16.32 23.39 16.32 23.39 17.71 23.89 17.71 23.89 16.32 23.89 16.32"/></svg>